<svg xmlns="http://www.w3.org/2000/svg" xmlns:xlink="http://www.w3.org/1999/xlink" width="500" zoomAndPan="magnify" viewBox="0 0 375 374.999991" height="500" preserveAspectRatio="xMidYMid meet" version="1.0"><defs><g/><clipPath id="38fe7d3d09"><path d="M 39.792969 28.195312 L 328.542969 28.195312 L 328.542969 316.945312 L 39.792969 316.945312 Z M 39.792969 28.195312 " clip-rule="nonzero"/></clipPath><clipPath id="a8f857e04f"><path d="M 19.324219 286.429688 L 356 286.429688 L 356 326.179688 L 19.324219 326.179688 Z M 19.324219 286.429688 " clip-rule="nonzero"/></clipPath></defs><g clip-path="url(#38fe7d3d09)"><path fill="#ffffff" d="M 39.792969 172.515625 C 39.792969 252.222656 104.410156 316.839844 184.113281 316.839844 C 263.820312 316.839844 328.4375 252.222656 328.4375 172.515625 C 328.4375 92.808594 263.820312 28.195312 184.113281 28.195312 C 104.410156 28.195312 39.792969 92.808594 39.792969 172.515625 " fill-opacity="1" fill-rule="nonzero"/></g><path fill="#020202" d="M 44.332031 172.515625 C 44.332031 249.714844 106.917969 312.296875 184.113281 312.296875 C 261.3125 312.296875 323.894531 249.714844 323.894531 172.515625 C 323.894531 95.316406 261.3125 32.734375 184.113281 32.734375 C 106.917969 32.734375 44.332031 95.316406 44.332031 172.515625 " fill-opacity="1" fill-rule="nonzero"/><path fill="#020202" d="M 44.332031 172.515625 C 44.332031 249.714844 106.917969 312.296875 184.113281 312.296875 C 261.3125 312.296875 323.894531 249.714844 323.894531 172.515625 C 323.894531 95.316406 261.3125 32.734375 184.113281 32.734375 C 106.917969 32.734375 44.332031 95.316406 44.332031 172.515625 " fill-opacity="1" fill-rule="nonzero"/><path fill="#ffffff" d="M 47.835938 172.515625 C 47.835938 247.78125 108.847656 308.796875 184.113281 308.796875 C 259.378906 308.796875 320.394531 247.78125 320.394531 172.515625 C 320.394531 97.25 259.378906 36.234375 184.113281 36.234375 C 108.847656 36.234375 47.835938 97.25 47.835938 172.515625 " fill-opacity="1" fill-rule="nonzero"/><path fill="#020202" d="M 50.335938 172.515625 C 50.335938 246.398438 110.230469 306.292969 184.113281 306.292969 C 258 306.292969 317.894531 246.398438 317.894531 172.515625 C 317.894531 98.632812 258 38.738281 184.113281 38.738281 C 110.230469 38.738281 50.335938 98.632812 50.335938 172.515625 " fill-opacity="1" fill-rule="nonzero"/><path fill="#ffffff" d="M 110.933594 253.167969 L 108.316406 245.105469 L 108.3125 245.113281 L 105.699219 253.167969 L 97.222656 253.167969 L 104.078125 258.148438 L 101.457031 266.207031 L 105.992188 262.917969 L 108.316406 261.226562 L 115.175781 266.207031 L 112.554688 258.148438 L 119.410156 253.167969 L 110.933594 253.167969 " fill-opacity="1" fill-rule="nonzero"/><path fill="#ffffff" d="M 271.007812 253.167969 L 262.53125 253.167969 L 259.914062 245.105469 L 257.296875 253.167969 L 248.820312 253.167969 L 255.675781 258.148438 L 253.054688 266.207031 L 259.914062 261.226562 L 266.769531 266.207031 L 264.152344 258.148438 L 271.007812 253.167969 " fill-opacity="1" fill-rule="nonzero"/><path fill="#ffffff" d="M 144.34375 257.648438 L 141.183594 247.925781 L 138.027344 257.648438 L 127.808594 257.648438 L 136.078125 263.652344 L 132.917969 273.371094 L 141.183594 267.363281 L 149.453125 273.371094 L 146.292969 263.652344 L 154.5625 257.648438 L 144.34375 257.648438 " fill-opacity="1" fill-rule="nonzero"/><path fill="#ffffff" d="M 230.203125 257.648438 L 227.046875 247.925781 L 223.886719 257.648438 L 213.667969 257.648438 L 221.9375 263.652344 L 218.777344 273.371094 L 227.046875 267.363281 L 235.3125 273.371094 L 232.152344 263.652344 L 240.421875 257.648438 L 230.203125 257.648438 " fill-opacity="1" fill-rule="nonzero"/><path fill="#ffffff" d="M 188.523438 258.675781 L 184.113281 245.105469 L 179.707031 258.675781 L 165.4375 258.675781 L 176.980469 267.066406 L 172.570312 280.632812 L 184.113281 272.246094 L 195.660156 280.632812 L 191.25 267.066406 L 202.792969 258.675781 L 188.523438 258.675781 " fill-opacity="1" fill-rule="nonzero"/><path fill="#ffffff" d="M 102.753906 155.5 C 101.234375 155.5 100.003906 156.714844 100.003906 158.214844 L 100.007812 172.160156 L 100.011719 189.589844 L 103.402344 189.589844 L 103.398438 172.160156 L 107.5 172.160156 L 107.503906 189.585938 L 110.894531 189.585938 L 110.890625 172.160156 L 114.992188 172.15625 L 114.996094 189.585938 L 118.386719 189.582031 L 118.382812 172.15625 L 122.484375 172.152344 L 122.488281 189.582031 L 125.878906 189.582031 L 125.871094 172.152344 L 129.976562 172.152344 L 129.980469 189.582031 L 133.371094 189.582031 L 133.367188 172.152344 L 137.46875 172.152344 L 137.472656 189.582031 L 140.863281 189.578125 L 140.855469 172.148438 L 144.960938 172.148438 L 144.964844 189.578125 L 148.355469 189.578125 L 148.351562 172.148438 L 152.453125 172.144531 L 152.457031 189.574219 L 155.847656 189.574219 L 155.84375 172.144531 L 159.941406 172.144531 L 159.949219 189.574219 L 163.339844 189.574219 L 163.332031 172.144531 L 167.4375 172.144531 L 167.4375 189.574219 L 170.828125 189.570312 L 170.828125 172.144531 L 174.925781 172.140625 L 174.933594 189.570312 L 178.324219 189.570312 L 178.316406 172.140625 L 182.417969 172.136719 L 182.421875 189.570312 L 185.8125 189.570312 L 185.808594 172.136719 L 188.214844 172.136719 L 188.21875 189.566406 L 190.140625 189.566406 L 190.136719 172.136719 L 191.929688 172.136719 L 191.933594 189.566406 L 193.859375 189.566406 L 193.851562 172.136719 L 195.648438 172.136719 L 195.65625 189.566406 L 197.574219 189.5625 L 197.574219 172.136719 L 199.367188 172.136719 L 199.371094 189.5625 L 201.296875 189.5625 L 201.289062 172.132812 L 203.085938 172.132812 L 203.09375 189.5625 L 205.011719 189.5625 L 205.007812 172.132812 L 206.804688 172.132812 L 206.808594 189.5625 L 208.734375 189.5625 L 208.726562 172.132812 L 210.523438 172.128906 L 210.527344 189.5625 L 212.449219 189.5625 L 212.445312 172.128906 L 214.242188 172.128906 L 214.246094 189.5625 L 216.167969 189.558594 L 216.164062 172.128906 L 217.957031 172.128906 L 217.964844 189.558594 L 219.886719 189.558594 L 219.882812 172.128906 L 221.679688 172.128906 L 221.683594 189.558594 L 223.605469 189.558594 L 223.601562 172.128906 L 225.394531 172.128906 L 225.402344 189.558594 L 227.324219 189.554688 L 227.320312 172.128906 L 229.117188 172.128906 L 229.117188 189.554688 L 231.042969 189.554688 L 231.039062 172.125 L 232.832031 172.125 L 232.835938 189.554688 L 234.761719 189.554688 L 234.753906 172.125 L 236.550781 172.125 L 236.554688 189.554688 L 238.476562 189.554688 L 238.472656 172.125 L 240.269531 172.121094 L 240.273438 189.554688 L 242.199219 189.554688 L 242.191406 172.121094 L 243.988281 172.121094 L 243.992188 189.554688 L 245.914062 189.554688 L 245.910156 172.121094 L 247.707031 172.121094 L 247.710938 189.554688 L 249.632812 189.550781 L 249.628906 172.121094 L 251.425781 172.121094 L 251.429688 189.550781 L 253.351562 189.550781 L 253.347656 172.121094 L 255.144531 172.121094 L 255.148438 189.550781 L 257.070312 189.550781 L 257.066406 172.121094 L 258.863281 172.121094 L 258.867188 189.546875 L 260.789062 189.546875 L 260.785156 172.117188 L 262.582031 172.117188 L 262.585938 189.546875 L 264.507812 189.546875 L 264.503906 172.117188 L 266.296875 172.117188 L 266.304688 189.546875 L 268.226562 189.546875 L 268.21875 172.117188 L 268.21875 158.546875 C 268.214844 156.839844 266.816406 155.453125 265.085938 155.453125 L 102.753906 155.5 " fill-opacity="1" fill-rule="nonzero"/><path fill="#020202" d="M 162.699219 215.378906 C 162.035156 214.742188 161.257812 214.304688 160.390625 214.074219 C 159.925781 213.949219 159.445312 213.890625 158.964844 213.894531 C 155.84375 213.925781 152.9375 216.445312 151.890625 220.03125 C 151.019531 223.003906 151.675781 226.097656 153.566406 227.910156 C 154.230469 228.546875 155.003906 228.984375 155.871094 229.210938 C 156.339844 229.335938 156.816406 229.398438 157.300781 229.390625 C 160.417969 229.359375 163.328125 226.839844 164.375 223.257812 C 165.246094 220.28125 164.585938 217.1875 162.699219 215.378906 Z M 147.410156 234.039062 C 143.171875 229.980469 141.636719 223.714844 143.402344 217.683594 C 145.476562 210.585938 151.683594 205.546875 158.570312 205.324219 C 166.847656 185.691406 172.234375 172.539062 172.679688 170.882812 L 193.445312 96.796875 L 196.238281 86.847656 C 197.578125 82.078125 197.578125 82.078125 198.582031 81.804688 L 201.015625 81.144531 L 200.894531 83.667969 C 199.894531 103.960938 196.875 132.222656 191.917969 167.667969 C 191.589844 170.007812 190.238281 172.132812 188.109375 173.652344 C 183.414062 177 175.445312 191.4375 168.5625 209 C 168.660156 209.085938 168.757812 209.171875 168.851562 209.265625 C 173.085938 213.324219 174.625 219.585938 172.867188 225.601562 C 170.753906 232.816406 164.378906 237.902344 157.359375 237.96875 C 156.066406 237.980469 154.78125 237.820312 153.542969 237.492188 C 151.214844 236.871094 149.152344 235.710938 147.410156 234.039062 " fill-opacity="1" fill-rule="nonzero"/><path fill="#ffffff" d="M 166.132812 223.773438 C 164.863281 228.121094 161.238281 231.1875 157.320312 231.222656 C 156.671875 231.230469 156.03125 231.148438 155.40625 230.984375 C 150.992188 229.808594 148.625 224.664062 150.132812 219.511719 C 151.402344 215.164062 155.027344 212.101562 158.941406 212.066406 C 159.589844 212.058594 160.234375 212.140625 160.859375 212.304688 C 165.273438 213.476562 167.640625 218.621094 166.132812 223.773438 Z M 174.449219 171.363281 C 173.742188 173.988281 163.261719 198.914062 159.78125 207.171875 C 159.496094 207.152344 159.210938 207.144531 158.925781 207.148438 C 152.703125 207.207031 147.042969 211.75 145.15625 218.199219 C 142.886719 225.960938 146.859375 233.820312 154.011719 235.71875 C 155.09375 236.007812 156.210938 236.148438 157.335938 236.140625 C 163.558594 236.078125 169.21875 231.535156 171.105469 225.085938 C 172.890625 218.992188 170.8125 212.851562 166.378906 209.566406 C 172.894531 192.671875 181.390625 176.1875 187.042969 172.160156 C 188.683594 170.992188 189.835938 169.328125 190.101562 167.410156 C 194.019531 139.40625 197.875 107.75 199.066406 83.570312 C 199.066406 83.511719 174.449219 171.363281 174.449219 171.363281 " fill-opacity="1" fill-rule="nonzero"/><path fill="#020202" d="M 213.875 215.472656 C 212.476562 214.132812 210.777344 213.40625 209.085938 213.421875 C 208.605469 213.425781 208.125 213.496094 207.660156 213.628906 C 205.863281 214.140625 204.851562 215.433594 204.320312 216.421875 C 203.328125 218.269531 203.167969 220.625 203.882812 222.882812 C 204.367188 224.414062 205.203125 225.777344 206.304688 226.832031 C 207.703125 228.171875 209.402344 228.898438 211.089844 228.886719 C 211.570312 228.878906 212.054688 228.808594 212.515625 228.679688 C 214.3125 228.160156 215.324219 226.875 215.855469 225.886719 C 216.847656 224.035156 217.007812 221.679688 216.296875 219.421875 C 215.8125 217.894531 214.976562 216.527344 213.875 215.472656 Z M 200.105469 232.902344 C 197.960938 230.851562 196.351562 228.25 195.445312 225.390625 C 193.480469 219.164062 195.128906 212.585938 199.539062 208.554688 C 192.933594 192.738281 185.546875 179.574219 180.574219 174.8125 C 180.039062 174.300781 179.542969 173.894531 179.09375 173.609375 C 178.617188 173.300781 178.175781 172.953125 177.777344 172.566406 C 176.488281 171.335938 175.664062 169.785156 175.386719 168.082031 C 169.621094 132.625 165.964844 104.339844 164.515625 84.007812 L 164.175781 79.28125 C 164.175781 79.28125 167.613281 82.566406 167.613281 82.566406 C 167.960938 82.898438 167.992188 83.007812 172.25 97 L 194.644531 170.65625 C 195.128906 172.320312 200.808594 185.375 209.515625 204.847656 C 213.382812 204.960938 217.113281 206.5625 220.074219 209.40625 C 222.214844 211.453125 223.824219 214.050781 224.730469 216.914062 C 226.117188 221.296875 225.726562 226.015625 223.664062 229.863281 C 221.792969 233.347656 218.726562 235.851562 215.027344 236.910156 C 213.796875 237.261719 212.519531 237.445312 211.226562 237.460938 C 207.160156 237.5 203.210938 235.878906 200.105469 232.902344 " fill-opacity="1" fill-rule="nonzero"/><path fill="#ffffff" d="M 213.019531 230.441406 C 212.402344 230.613281 211.757812 230.710938 211.109375 230.714844 C 207.191406 230.75 203.503906 227.757812 202.136719 223.433594 C 200.519531 218.3125 202.769531 213.121094 207.15625 211.867188 C 207.773438 211.6875 208.421875 211.597656 209.066406 211.589844 C 212.984375 211.554688 216.675781 214.550781 218.039062 218.875 C 219.660156 223.992188 217.40625 229.183594 213.019531 230.441406 Z M 222.984375 217.464844 C 220.957031 211.054688 215.195312 206.617188 208.972656 206.675781 C 208.761719 206.679688 208.550781 206.691406 208.34375 206.703125 C 204.675781 198.507812 193.65625 173.796875 192.890625 171.1875 C 192.890625 171.1875 166.335938 83.820312 166.339844 83.878906 C 168.066406 108.105469 172.644531 139.804688 177.195312 167.796875 C 177.480469 169.539062 178.53125 171.070312 180.082031 172.070312 C 185.800781 175.742188 194.773438 192.152344 201.75 209.101562 C 197.269531 212.433594 195.25 218.699219 197.191406 224.839844 C 199.21875 231.253906 204.980469 235.6875 211.203125 235.628906 C 212.328125 235.617188 213.441406 235.457031 214.519531 235.148438 C 221.625 233.113281 225.425781 225.179688 222.984375 217.464844 " fill-opacity="1" fill-rule="nonzero"/><path fill="#020202" d="M 178.996094 160.800781 C 179.019531 162.976562 180.914062 164.722656 183.234375 164.703125 C 185.550781 164.679688 187.410156 162.898438 187.386719 160.722656 C 187.363281 158.546875 185.464844 156.800781 183.148438 156.820312 C 180.832031 156.84375 178.96875 158.625 178.996094 160.800781 " fill-opacity="1" fill-rule="nonzero"/><path fill="#ffffff" d="M 102.125 136.703125 L 126.800781 146.246094 C 126.71875 141.933594 127.691406 136.613281 129.5625 134.699219 C 131.183594 133.050781 134.132812 133.976562 136.183594 134.035156 C 138.671875 134.105469 139.976562 133.230469 140.523438 132.578125 C 141.074219 131.929688 141.703125 130.179688 141.503906 128.570312 C 141.304688 126.957031 141.664062 125.835938 141.980469 125.371094 C 142.359375 124.820312 142.894531 124.691406 143.125 123.851562 C 143.253906 123.375 143.164062 122.863281 142.917969 122.472656 C 142.917969 122.472656 143.527344 121.894531 143.613281 121.339844 C 143.703125 120.789062 143.273438 120.074219 143.273438 120.074219 C 142.804688 119.0625 142.886719 118.191406 143.625 117.910156 C 144.34375 117.632812 145.175781 117.324219 145.777344 116.816406 C 146.679688 116.046875 146.589844 114.933594 146.113281 114.191406 C 145.554688 113.304688 145.054688 112.730469 144.441406 112.003906 C 143.40625 110.777344 142.453125 109.433594 141.574219 108.09375 C 141.023438 107.257812 139.980469 105.738281 140.558594 104.703125 C 140.921875 104.054688 141.6875 102.925781 141.453125 101.652344 C 140.960938 98.941406 140.09375 96.210938 138.753906 93.785156 C 138.566406 93.445312 138.480469 93.0625 138.496094 92.679688 L 138.636719 92.675781 C 139.09375 91.265625 138.636719 89.367188 138.050781 88.0625 C 136.753906 85.15625 133.828125 83.496094 130.9375 82.527344 C 129.320312 81.984375 127.652344 81.644531 125.984375 81.339844 C 124.21875 81.015625 122.4375 80.738281 120.644531 80.648438 C 115.109375 80.378906 109.039062 80.964844 104.144531 83.945312 C 95.515625 89.203125 92.792969 100.414062 94.15625 109.871094 C 94.792969 114.257812 96.480469 117.746094 98.824219 121.472656 C 100.046875 123.414062 101.421875 125.226562 102.167969 127.421875 C 103.226562 130.523438 102.703125 134.519531 102.125 136.703125 " fill-opacity="1" fill-rule="nonzero"/><path fill="#ffffff" d="M 268.882812 102.15625 C 268.136719 98.179688 266.820312 94.367188 264.28125 91.246094 C 258.75 84.453125 250.003906 82.351562 241.578125 82.957031 C 237.410156 83.261719 233.035156 84.507812 230.15625 87.707031 C 228.933594 89.066406 229.21875 90.347656 229.148438 90.851562 C 229.078125 91.351562 228.742188 91.78125 228.742188 91.78125 C 228.742188 91.78125 227.121094 94.191406 226.261719 95.851562 C 225.398438 97.515625 224.53125 101.695312 224.425781 102.660156 C 224.320312 103.625 224.480469 105.289062 224.75 106.304688 C 225.019531 107.324219 225.320312 108.730469 224.1875 110.445312 C 223.054688 112.160156 221.425781 114.128906 220.78125 115.042969 C 220.140625 115.941406 219.640625 116.757812 220.21875 117.847656 C 220.847656 119.035156 222.375 119.007812 222.808594 119.488281 C 223.238281 119.972656 222.953125 120.667969 222.734375 121.097656 C 222.519531 121.527344 221.515625 122.40625 222.699219 123.292969 C 223.578125 123.949219 223.578125 123.949219 223.578125 123.949219 C 223.578125 123.949219 222.699219 124.6875 222.808594 125.386719 C 222.917969 126.082031 223.679688 126.296875 223.898438 126.546875 C 224.113281 126.796875 224.722656 126.726562 224.582031 127.761719 C 224.4375 128.796875 224.109375 130.621094 224.867188 131.871094 C 225.621094 133.121094 226.414062 133.441406 227.960938 133.695312 C 229.507812 133.945312 232.488281 133.230469 233.140625 133.121094 C 240.753906 131.855469 240.089844 141.644531 239.199219 146.246094 L 260.28125 138.257812 C 259.808594 135.933594 259.910156 136.988281 259.480469 132.828125 C 266.898438 133.089844 273.761719 127.480469 275.429688 119.351562 C 276.855469 112.398438 274.054688 105.644531 268.882812 102.15625 " fill-opacity="1" fill-rule="nonzero"/><g clip-path="url(#a8f857e04f)"><path fill="#939598" d="M 19.519531 286.429688 L 355.878906 286.429688 L 355.878906 326.179688 L 19.519531 326.179688 Z M 19.519531 286.429688 " fill-opacity="1" fill-rule="nonzero"/><path fill="#020202" d="M 19.519531 286.429688 L 355.878906 286.429688 L 355.878906 326.179688 L 19.519531 326.179688 Z M 19.519531 286.429688 " fill-opacity="1" fill-rule="nonzero"/></g><g fill="#ffffff" fill-opacity="1"><g transform="translate(24.918568, 310.774464)"><g><path d="M 0.578125 0 L 0.578125 -0.265625 L 1.03125 -0.4375 C 1.382812 -0.582031 1.625 -0.753906 1.75 -0.953125 C 1.882812 -1.160156 1.953125 -1.441406 1.953125 -1.796875 L 1.953125 -15.328125 C 1.953125 -15.691406 1.882812 -15.976562 1.75 -16.1875 C 1.625 -16.394531 1.382812 -16.554688 1.03125 -16.671875 L 0.578125 -16.859375 L 0.578125 -17.125 L 8.015625 -17.125 C 10.117188 -17.125 11.640625 -16.738281 12.578125 -15.96875 C 13.515625 -15.195312 13.984375 -14.222656 13.984375 -13.046875 C 13.984375 -12.160156 13.640625 -11.359375 12.953125 -10.640625 C 12.273438 -9.929688 11.101562 -9.425781 9.4375 -9.125 C 11.34375 -8.914062 12.734375 -8.414062 13.609375 -7.625 C 14.492188 -6.84375 14.9375 -5.890625 14.9375 -4.765625 C 14.9375 -4.210938 14.816406 -3.65625 14.578125 -3.09375 C 14.335938 -2.53125 13.925781 -2.015625 13.34375 -1.546875 C 12.757812 -1.085938 11.96875 -0.710938 10.96875 -0.421875 C 9.96875 -0.140625 8.695312 0 7.15625 0 Z M 5.78125 -9.15625 L 6.90625 -9.15625 C 8.0625 -9.15625 8.894531 -9.421875 9.40625 -9.953125 C 9.914062 -10.492188 10.171875 -11.429688 10.171875 -12.765625 C 10.171875 -14.148438 9.9375 -15.132812 9.46875 -15.71875 C 9 -16.300781 8.238281 -16.59375 7.1875 -16.59375 L 5.78125 -16.59375 Z M 5.78125 -0.515625 L 7.078125 -0.515625 C 8.378906 -0.515625 9.34375 -0.859375 9.96875 -1.546875 C 10.601562 -2.242188 10.921875 -3.328125 10.921875 -4.796875 C 10.921875 -6.179688 10.617188 -7.164062 10.015625 -7.75 C 9.410156 -8.34375 8.414062 -8.640625 7.03125 -8.640625 L 5.78125 -8.640625 Z M 5.78125 -0.515625 "/></g></g></g><g fill="#ffffff" fill-opacity="1"><g transform="translate(48.578685, 310.774464)"><g><path d="M 8.6875 0.46875 C 7.632812 0.46875 6.617188 0.28125 5.640625 -0.09375 C 4.660156 -0.476562 3.785156 -1.046875 3.015625 -1.796875 C 2.253906 -2.554688 1.644531 -3.492188 1.1875 -4.609375 C 0.738281 -5.734375 0.515625 -7.050781 0.515625 -8.5625 C 0.515625 -10.050781 0.738281 -11.351562 1.1875 -12.46875 C 1.644531 -13.59375 2.257812 -14.53125 3.03125 -15.28125 C 3.8125 -16.039062 4.691406 -16.613281 5.671875 -17 C 6.648438 -17.382812 7.65625 -17.578125 8.6875 -17.578125 C 9.738281 -17.578125 10.753906 -17.390625 11.734375 -17.015625 C 12.710938 -16.648438 13.585938 -16.09375 14.359375 -15.34375 C 15.128906 -14.59375 15.738281 -13.648438 16.1875 -12.515625 C 16.632812 -11.378906 16.859375 -10.0625 16.859375 -8.5625 C 16.859375 -7.09375 16.632812 -5.789062 16.1875 -4.65625 C 15.738281 -3.519531 15.128906 -2.578125 14.359375 -1.828125 C 13.585938 -1.078125 12.710938 -0.503906 11.734375 -0.109375 C 10.753906 0.273438 9.738281 0.46875 8.6875 0.46875 Z M 8.6875 -0.078125 C 9.632812 -0.078125 10.398438 -0.332031 10.984375 -0.84375 C 11.578125 -1.351562 12.007812 -2.222656 12.28125 -3.453125 C 12.550781 -4.691406 12.6875 -6.394531 12.6875 -8.5625 C 12.6875 -10.738281 12.550781 -12.441406 12.28125 -13.671875 C 12.007812 -14.910156 11.578125 -15.785156 10.984375 -16.296875 C 10.398438 -16.804688 9.632812 -17.0625 8.6875 -17.0625 C 7.75 -17.0625 6.988281 -16.804688 6.40625 -16.296875 C 5.820312 -15.785156 5.394531 -14.910156 5.125 -13.671875 C 4.851562 -12.441406 4.71875 -10.738281 4.71875 -8.5625 C 4.71875 -6.394531 4.851562 -4.691406 5.125 -3.453125 C 5.394531 -2.222656 5.820312 -1.351562 6.40625 -0.84375 C 6.988281 -0.332031 7.75 -0.078125 8.6875 -0.078125 Z M 8.6875 -0.078125 "/></g></g></g><g fill="#ffffff" fill-opacity="1"><g transform="translate(74.106693, 310.774464)"><g><path d="M 8.6875 0.46875 C 7.632812 0.46875 6.617188 0.28125 5.640625 -0.09375 C 4.660156 -0.476562 3.785156 -1.046875 3.015625 -1.796875 C 2.253906 -2.554688 1.644531 -3.492188 1.1875 -4.609375 C 0.738281 -5.734375 0.515625 -7.050781 0.515625 -8.5625 C 0.515625 -10.050781 0.738281 -11.351562 1.1875 -12.46875 C 1.644531 -13.59375 2.257812 -14.53125 3.03125 -15.28125 C 3.8125 -16.039062 4.691406 -16.613281 5.671875 -17 C 6.648438 -17.382812 7.65625 -17.578125 8.6875 -17.578125 C 9.738281 -17.578125 10.753906 -17.390625 11.734375 -17.015625 C 12.710938 -16.648438 13.585938 -16.09375 14.359375 -15.34375 C 15.128906 -14.59375 15.738281 -13.648438 16.1875 -12.515625 C 16.632812 -11.378906 16.859375 -10.0625 16.859375 -8.5625 C 16.859375 -7.09375 16.632812 -5.789062 16.1875 -4.65625 C 15.738281 -3.519531 15.128906 -2.578125 14.359375 -1.828125 C 13.585938 -1.078125 12.710938 -0.503906 11.734375 -0.109375 C 10.753906 0.273438 9.738281 0.46875 8.6875 0.46875 Z M 8.6875 -0.078125 C 9.632812 -0.078125 10.398438 -0.332031 10.984375 -0.84375 C 11.578125 -1.351562 12.007812 -2.222656 12.28125 -3.453125 C 12.550781 -4.691406 12.6875 -6.394531 12.6875 -8.5625 C 12.6875 -10.738281 12.550781 -12.441406 12.28125 -13.671875 C 12.007812 -14.910156 11.578125 -15.785156 10.984375 -16.296875 C 10.398438 -16.804688 9.632812 -17.0625 8.6875 -17.0625 C 7.75 -17.0625 6.988281 -16.804688 6.40625 -16.296875 C 5.820312 -15.785156 5.394531 -14.910156 5.125 -13.671875 C 4.851562 -12.441406 4.71875 -10.738281 4.71875 -8.5625 C 4.71875 -6.394531 4.851562 -4.691406 5.125 -3.453125 C 5.394531 -2.222656 5.820312 -1.351562 6.40625 -0.84375 C 6.988281 -0.332031 7.75 -0.078125 8.6875 -0.078125 Z M 8.6875 -0.078125 "/></g></g></g><g fill="#ffffff" fill-opacity="1"><g transform="translate(99.634705, 310.774464)"><g><path d="M 0.578125 0 L 0.578125 -0.265625 L 1.109375 -0.46875 C 1.460938 -0.59375 1.691406 -0.753906 1.796875 -0.953125 C 1.898438 -1.160156 1.953125 -1.429688 1.953125 -1.765625 L 1.953125 -15.328125 C 1.953125 -15.671875 1.898438 -15.945312 1.796875 -16.15625 C 1.691406 -16.363281 1.460938 -16.53125 1.109375 -16.65625 L 0.578125 -16.859375 L 0.578125 -17.125 L 7.03125 -17.125 L 7.03125 -16.859375 L 6.453125 -16.625 C 6.160156 -16.519531 5.960938 -16.363281 5.859375 -16.15625 C 5.753906 -15.945312 5.703125 -15.660156 5.703125 -15.296875 L 5.703125 -1.734375 C 5.703125 -1.390625 5.757812 -1.125 5.875 -0.9375 C 5.988281 -0.75 6.207031 -0.59375 6.53125 -0.46875 L 7.03125 -0.265625 L 7.03125 0 Z M 10.140625 0 L 10.140625 -0.265625 L 10.484375 -0.359375 C 10.828125 -0.460938 11.003906 -0.632812 11.015625 -0.875 C 11.035156 -1.125 10.9375 -1.40625 10.71875 -1.71875 L 5.734375 -8.796875 L 12.296875 -15.484375 C 12.535156 -15.722656 12.664062 -15.953125 12.6875 -16.171875 C 12.71875 -16.398438 12.550781 -16.578125 12.1875 -16.703125 L 11.75 -16.859375 L 11.75 -17.125 L 15.53125 -17.125 L 15.53125 -16.859375 L 14.859375 -16.65625 C 14.484375 -16.53125 14.179688 -16.378906 13.953125 -16.203125 C 13.734375 -16.035156 13.472656 -15.804688 13.171875 -15.515625 L 8.53125 -10.765625 L 14.625 -1.875 C 14.882812 -1.488281 15.128906 -1.175781 15.359375 -0.9375 C 15.597656 -0.695312 15.929688 -0.503906 16.359375 -0.359375 L 16.734375 -0.265625 L 16.734375 0 Z M 10.140625 0 "/></g></g></g><g fill="#ffffff" fill-opacity="1"><g transform="translate(124.747618, 310.774464)"><g/></g></g><g fill="#ffffff" fill-opacity="1"><g transform="translate(138.549305, 310.774464)"><g><path d="M 0.515625 0 L 0.515625 -0.265625 L 1.03125 -0.4375 C 1.625 -0.625 1.921875 -1.117188 1.921875 -1.921875 L 1.921875 -15.203125 C 1.921875 -15.546875 1.878906 -15.820312 1.796875 -16.03125 C 1.722656 -16.238281 1.519531 -16.410156 1.1875 -16.546875 L 0.515625 -16.859375 L 0.515625 -17.125 L 5.53125 -17.125 L 10.328125 -4.5625 L 14.84375 -17.125 L 19.953125 -17.125 L 19.953125 -16.859375 L 19.53125 -16.703125 C 19.195312 -16.578125 18.96875 -16.40625 18.84375 -16.1875 C 18.726562 -15.976562 18.671875 -15.703125 18.671875 -15.359375 L 18.671875 -1.796875 C 18.671875 -1.441406 18.710938 -1.171875 18.796875 -0.984375 C 18.890625 -0.796875 19.097656 -0.632812 19.421875 -0.5 L 19.953125 -0.265625 L 19.953125 0 L 13.484375 0 L 13.484375 -0.265625 L 14.03125 -0.5 C 14.363281 -0.632812 14.570312 -0.796875 14.65625 -0.984375 C 14.738281 -1.171875 14.78125 -1.441406 14.78125 -1.796875 L 14.78125 -7.625 L 14.84375 -15.046875 L 9.421875 0 L 8.125 0 L 2.46875 -14.859375 L 2.546875 -8.40625 L 2.546875 -1.875 C 2.546875 -1.488281 2.597656 -1.175781 2.703125 -0.9375 C 2.816406 -0.707031 3.039062 -0.539062 3.375 -0.4375 L 3.9375 -0.265625 L 3.9375 0 Z M 0.515625 0 "/></g></g></g><g fill="#ffffff" fill-opacity="1"><g transform="translate(167.216434, 310.774464)"><g><path d="M 4.28125 0 L 4.28125 -0.265625 L 5.0625 -0.46875 C 5.664062 -0.632812 5.96875 -1.066406 5.96875 -1.765625 L 5.96875 -6.6875 L 1.6875 -15.40625 C 1.53125 -15.75 1.382812 -16.003906 1.25 -16.171875 C 1.125 -16.347656 0.929688 -16.5 0.671875 -16.625 L 0.203125 -16.859375 L 0.203125 -17.125 L 7.15625 -17.125 L 7.15625 -16.859375 L 6.6875 -16.671875 C 6.3125 -16.515625 6.101562 -16.300781 6.0625 -16.03125 C 6.03125 -15.769531 6.101562 -15.441406 6.28125 -15.046875 L 9.34375 -8.25 L 12.765625 -15.296875 C 12.898438 -15.578125 12.953125 -15.863281 12.921875 -16.15625 C 12.898438 -16.445312 12.71875 -16.640625 12.375 -16.734375 L 12.015625 -16.859375 L 12.015625 -17.125 L 15.125 -17.125 L 15.125 -16.859375 L 14.625 -16.671875 C 14.300781 -16.554688 14.0625 -16.390625 13.90625 -16.171875 C 13.75 -15.953125 13.59375 -15.679688 13.4375 -15.359375 L 9.875 -7.890625 L 9.875 -1.765625 C 9.875 -1.421875 9.9375 -1.140625 10.0625 -0.921875 C 10.195312 -0.703125 10.429688 -0.550781 10.765625 -0.46875 L 11.5625 -0.265625 L 11.5625 0 Z M 4.28125 0 "/></g></g></g><g fill="#ffffff" fill-opacity="1"><g transform="translate(190.668985, 310.774464)"><g/></g></g><g fill="#ffffff" fill-opacity="1"><g transform="translate(204.470672, 310.774464)"><g><path d="M 6.140625 0.46875 C 5.191406 0.46875 4.222656 0.347656 3.234375 0.109375 C 2.253906 -0.117188 1.4375 -0.421875 0.78125 -0.796875 L 0.90625 -4.328125 L 1.171875 -4.328125 L 1.96875 -2.640625 C 2.207031 -2.160156 2.46875 -1.734375 2.75 -1.359375 C 3.03125 -0.984375 3.410156 -0.695312 3.890625 -0.5 C 4.234375 -0.320312 4.566406 -0.203125 4.890625 -0.140625 C 5.210938 -0.078125 5.570312 -0.046875 5.96875 -0.046875 C 7.019531 -0.046875 7.851562 -0.332031 8.46875 -0.90625 C 9.082031 -1.476562 9.390625 -2.210938 9.390625 -3.109375 C 9.390625 -3.960938 9.179688 -4.625 8.765625 -5.09375 C 8.347656 -5.570312 7.679688 -6.035156 6.765625 -6.484375 L 5.703125 -6.953125 C 4.210938 -7.609375 3.046875 -8.363281 2.203125 -9.21875 C 1.367188 -10.070312 0.953125 -11.207031 0.953125 -12.625 C 0.953125 -13.644531 1.21875 -14.523438 1.75 -15.265625 C 2.28125 -16.015625 3.015625 -16.585938 3.953125 -16.984375 C 4.898438 -17.378906 6.003906 -17.578125 7.265625 -17.578125 C 8.179688 -17.578125 9.046875 -17.457031 9.859375 -17.21875 C 10.679688 -16.976562 11.398438 -16.648438 12.015625 -16.234375 L 11.859375 -13.125 L 11.59375 -13.125 L 10.53125 -15.0625 C 10.238281 -15.675781 9.941406 -16.109375 9.640625 -16.359375 C 9.347656 -16.609375 9.015625 -16.785156 8.640625 -16.890625 C 8.410156 -16.953125 8.203125 -16.992188 8.015625 -17.015625 C 7.828125 -17.046875 7.582031 -17.0625 7.28125 -17.0625 C 6.40625 -17.0625 5.664062 -16.804688 5.0625 -16.296875 C 4.457031 -15.785156 4.15625 -15.097656 4.15625 -14.234375 C 4.15625 -13.359375 4.382812 -12.65625 4.84375 -12.125 C 5.3125 -11.59375 6 -11.125 6.90625 -10.71875 L 8.09375 -10.1875 C 9.75 -9.46875 10.941406 -8.695312 11.671875 -7.875 C 12.398438 -7.050781 12.765625 -5.988281 12.765625 -4.6875 C 12.765625 -3.164062 12.1875 -1.925781 11.03125 -0.96875 C 9.882812 -0.0078125 8.253906 0.46875 6.140625 0.46875 Z M 6.140625 0.46875 "/></g></g></g><g fill="#ffffff" fill-opacity="1"><g transform="translate(226.133151, 310.774464)"><g><path d="M 4.046875 0 L 4.046875 -0.265625 L 5.109375 -0.515625 C 5.816406 -0.671875 6.171875 -1.101562 6.171875 -1.8125 L 6.171875 -16.59375 L 3.96875 -16.59375 C 3.332031 -16.59375 2.875 -16.425781 2.59375 -16.09375 C 2.3125 -15.757812 2.019531 -15.296875 1.71875 -14.703125 L 0.78125 -12.890625 L 0.515625 -12.890625 L 0.65625 -17.125 L 15.609375 -17.125 L 15.71875 -12.890625 L 15.453125 -12.890625 L 14.53125 -14.703125 C 14.226562 -15.296875 13.9375 -15.757812 13.65625 -16.09375 C 13.382812 -16.425781 12.929688 -16.59375 12.296875 -16.59375 L 10.09375 -16.59375 L 10.09375 -1.8125 C 10.09375 -1.101562 10.445312 -0.671875 11.15625 -0.515625 L 12.21875 -0.265625 L 12.21875 0 Z M 4.046875 0 "/></g></g></g><g fill="#ffffff" fill-opacity="1"><g transform="translate(250.545593, 310.774464)"><g><path d="M 4.28125 0 L 4.28125 -0.265625 L 5.0625 -0.46875 C 5.664062 -0.632812 5.96875 -1.066406 5.96875 -1.765625 L 5.96875 -6.6875 L 1.6875 -15.40625 C 1.53125 -15.75 1.382812 -16.003906 1.25 -16.171875 C 1.125 -16.347656 0.929688 -16.5 0.671875 -16.625 L 0.203125 -16.859375 L 0.203125 -17.125 L 7.15625 -17.125 L 7.15625 -16.859375 L 6.6875 -16.671875 C 6.3125 -16.515625 6.101562 -16.300781 6.0625 -16.03125 C 6.03125 -15.769531 6.101562 -15.441406 6.28125 -15.046875 L 9.34375 -8.25 L 12.765625 -15.296875 C 12.898438 -15.578125 12.953125 -15.863281 12.921875 -16.15625 C 12.898438 -16.445312 12.71875 -16.640625 12.375 -16.734375 L 12.015625 -16.859375 L 12.015625 -17.125 L 15.125 -17.125 L 15.125 -16.859375 L 14.625 -16.671875 C 14.300781 -16.554688 14.0625 -16.390625 13.90625 -16.171875 C 13.75 -15.953125 13.59375 -15.679688 13.4375 -15.359375 L 9.875 -7.890625 L 9.875 -1.765625 C 9.875 -1.421875 9.9375 -1.140625 10.0625 -0.921875 C 10.195312 -0.703125 10.429688 -0.550781 10.765625 -0.46875 L 11.5625 -0.265625 L 11.5625 0 Z M 4.28125 0 "/></g></g></g><g fill="#ffffff" fill-opacity="1"><g transform="translate(273.998144, 310.774464)"><g><path d="M 0.578125 0 L 0.578125 -0.265625 L 1.109375 -0.46875 C 1.472656 -0.601562 1.703125 -0.769531 1.796875 -0.96875 C 1.898438 -1.164062 1.953125 -1.441406 1.953125 -1.796875 L 1.953125 -15.328125 C 1.953125 -15.671875 1.898438 -15.945312 1.796875 -16.15625 C 1.691406 -16.363281 1.460938 -16.53125 1.109375 -16.65625 L 0.578125 -16.859375 L 0.578125 -17.125 L 7.1875 -17.125 L 7.1875 -16.859375 L 6.71875 -16.65625 C 6.382812 -16.53125 6.15625 -16.359375 6.03125 -16.140625 C 5.914062 -15.929688 5.859375 -15.648438 5.859375 -15.296875 L 5.859375 -0.515625 L 9.859375 -0.515625 C 10.492188 -0.515625 10.960938 -0.671875 11.265625 -0.984375 C 11.566406 -1.296875 11.859375 -1.742188 12.140625 -2.328125 L 13.15625 -4.515625 L 13.40625 -4.515625 L 13.171875 0 Z M 0.578125 0 "/></g></g></g><g fill="#ffffff" fill-opacity="1"><g transform="translate(296.153532, 310.774464)"><g><path d="M 0.578125 0 L 0.578125 -0.265625 L 1.09375 -0.46875 C 1.4375 -0.59375 1.664062 -0.753906 1.78125 -0.953125 C 1.894531 -1.160156 1.953125 -1.441406 1.953125 -1.796875 L 1.953125 -15.328125 C 1.953125 -15.671875 1.898438 -15.945312 1.796875 -16.15625 C 1.691406 -16.363281 1.457031 -16.53125 1.09375 -16.65625 L 0.578125 -16.859375 L 0.578125 -17.125 L 7.234375 -17.125 L 7.234375 -16.859375 L 6.71875 -16.65625 C 6.375 -16.53125 6.144531 -16.363281 6.03125 -16.15625 C 5.914062 -15.945312 5.859375 -15.671875 5.859375 -15.328125 L 5.859375 -1.796875 C 5.859375 -1.441406 5.914062 -1.164062 6.03125 -0.96875 C 6.144531 -0.769531 6.375 -0.601562 6.71875 -0.46875 L 7.234375 -0.265625 L 7.234375 0 Z M 0.578125 0 "/></g></g></g><g fill="#ffffff" fill-opacity="1"><g transform="translate(312.108525, 310.774464)"><g><path d="M 6.140625 0.46875 C 5.191406 0.46875 4.222656 0.347656 3.234375 0.109375 C 2.253906 -0.117188 1.4375 -0.421875 0.78125 -0.796875 L 0.90625 -4.328125 L 1.171875 -4.328125 L 1.96875 -2.640625 C 2.207031 -2.160156 2.46875 -1.734375 2.75 -1.359375 C 3.03125 -0.984375 3.410156 -0.695312 3.890625 -0.5 C 4.234375 -0.320312 4.566406 -0.203125 4.890625 -0.140625 C 5.210938 -0.078125 5.570312 -0.046875 5.96875 -0.046875 C 7.019531 -0.046875 7.851562 -0.332031 8.46875 -0.90625 C 9.082031 -1.476562 9.390625 -2.210938 9.390625 -3.109375 C 9.390625 -3.960938 9.179688 -4.625 8.765625 -5.09375 C 8.347656 -5.570312 7.679688 -6.035156 6.765625 -6.484375 L 5.703125 -6.953125 C 4.210938 -7.609375 3.046875 -8.363281 2.203125 -9.21875 C 1.367188 -10.070312 0.953125 -11.207031 0.953125 -12.625 C 0.953125 -13.644531 1.21875 -14.523438 1.75 -15.265625 C 2.28125 -16.015625 3.015625 -16.585938 3.953125 -16.984375 C 4.898438 -17.378906 6.003906 -17.578125 7.265625 -17.578125 C 8.179688 -17.578125 9.046875 -17.457031 9.859375 -17.21875 C 10.679688 -16.976562 11.398438 -16.648438 12.015625 -16.234375 L 11.859375 -13.125 L 11.59375 -13.125 L 10.53125 -15.0625 C 10.238281 -15.675781 9.941406 -16.109375 9.640625 -16.359375 C 9.347656 -16.609375 9.015625 -16.785156 8.640625 -16.890625 C 8.410156 -16.953125 8.203125 -16.992188 8.015625 -17.015625 C 7.828125 -17.046875 7.582031 -17.0625 7.28125 -17.0625 C 6.40625 -17.0625 5.664062 -16.804688 5.0625 -16.296875 C 4.457031 -15.785156 4.15625 -15.097656 4.15625 -14.234375 C 4.15625 -13.359375 4.382812 -12.65625 4.84375 -12.125 C 5.3125 -11.59375 6 -11.125 6.90625 -10.71875 L 8.09375 -10.1875 C 9.75 -9.46875 10.941406 -8.695312 11.671875 -7.875 C 12.398438 -7.050781 12.765625 -5.988281 12.765625 -4.6875 C 12.765625 -3.164062 12.1875 -1.925781 11.03125 -0.96875 C 9.882812 -0.0078125 8.253906 0.46875 6.140625 0.46875 Z M 6.140625 0.46875 "/></g></g></g><g fill="#ffffff" fill-opacity="1"><g transform="translate(333.77102, 310.774464)"><g><path d="M 4.046875 0 L 4.046875 -0.265625 L 5.109375 -0.515625 C 5.816406 -0.671875 6.171875 -1.101562 6.171875 -1.8125 L 6.171875 -16.59375 L 3.96875 -16.59375 C 3.332031 -16.59375 2.875 -16.425781 2.59375 -16.09375 C 2.3125 -15.757812 2.019531 -15.296875 1.71875 -14.703125 L 0.78125 -12.890625 L 0.515625 -12.890625 L 0.65625 -17.125 L 15.609375 -17.125 L 15.71875 -12.890625 L 15.453125 -12.890625 L 14.53125 -14.703125 C 14.226562 -15.296875 13.9375 -15.757812 13.65625 -16.09375 C 13.382812 -16.425781 12.929688 -16.59375 12.296875 -16.59375 L 10.09375 -16.59375 L 10.09375 -1.8125 C 10.09375 -1.101562 10.445312 -0.671875 11.15625 -0.515625 L 12.21875 -0.265625 L 12.21875 0 Z M 4.046875 0 "/></g></g></g></svg>