<svg xmlns="http://www.w3.org/2000/svg" width="300" height="60" viewBox="0 0 241 29"><path style="stroke:none;fill-rule:evenodd;fill:#077fc8;fill-opacity:1" d="M32.953 16.953H56.79v-6.277H32.953zm0 11.922H56.79v-6.496H32.953zm46.79-14.434L90.585.211h-9.082l-6.29 8.351-4.55 6.07 7.59 9.833 3.469 4.39h9.101zm-7.157-9.629L69.12.212H60.02l8.02 10.672zm-39.66 1.684h23.863V.211H32.953zm27.094 22.39h9.101l3.465-4.6-4.547-6.071-8.02 10.676zm0 0"/><path style="stroke:none;fill-rule:evenodd;fill:#fff;fill-opacity:1" d="M234.11 19.867c0-2.32-2.602-2.512-3.465-2.512h-2.407c1.52-1.675 3.032-3.558 4.559-5.23l.64-.617c.2.101.418.176.641.21a9.259 9.259 0 0 1 4.356 2.423 8.77 8.77 0 0 1 2.375 4.273 9.274 9.274 0 0 1 0 3.711 9.256 9.256 0 0 1-1.489 3.41 7.48 7.48 0 0 1-3.035 2.723c-1.46.512-3.008.722-4.55.617h-17.31v-6.063h16.259c.433-.21 3.464-.21 3.464-2.925zm-61.774 8.793h-7.809V10.672h7.801zm-52.246-9.41c.25 1.84-.211 3.71-1.281 5.227-1.282 2.09-3.684 3.144-6.07 3.77-2.384.624-4.985.616-7.372.616H92.344v-6.27h17.789c.64 0 1.515 0 1.922-.413a2.91 2.91 0 0 0 .77-.934 2.79 2.79 0 0 0 .312-1.156c0-2.934-2.164-2.934-3.032-2.934H92.562v-6.48h16.473c1.082 0 2.403 0 3.04-.422.632-.422 1.077-1.047.64-2.715-.219-.844-1.512-.844-2.168-.844H92.344V.422h14.304a35.269 35.269 0 0 1 6.73.422 8.184 8.184 0 0 1 3.106 1.215 7.861 7.861 0 0 1 2.317 2.336 8.063 8.063 0 0 1 .867 5.023 9.074 9.074 0 0 1-2.168 4.602c1.281 1.468 2.406 3.136 2.602 5.023zm8.89-2.477c-.437-.21-.64-.421-1.082-.617-1.914-1.281-3.234-3.234-3.687-5.441-.434-2.715-.215-5.445-.215-7.95V.255h7.363v7.535a6.97 6.97 0 0 0 .211 2.09 2.561 2.561 0 0 0 1.52 1.46h6.504v6.052h-6.063c-1.539.004-3.07-.203-4.55-.618zm20.364 8.75c-.614.801-1.344 1.508-2.168 2.09-2.172 1.239-4.555 1.239-7.153 1.239-4.765 0-9.543 0-14.304-.211-.438 0-1.281 0-1.52-.211-.219-.414 0-1.239 0-1.676-.039-1.395.031-2.793.211-4.176h16.664c.871 0 1.738 0 2.176-.828.172-.39.242-.816.21-1.238V0h7.595c0 5.02.21 10.254.21 15.277a33.732 33.732 0 0 1-.43 6.696 5.319 5.319 0 0 1-1.519 3.55zM173.168 6.07h-17.094V0h25.363v6.07zM185.543 0h23.848v6.07h-23.832zm0 10.672h23.848v6.101h-23.832zm0 11.922h23.848v6.078h-23.832zm34.684-14.23c0 1.679.64 2.32 1.28 2.722a2.83 2.83 0 0 0 1.286.207h4.324c-1.281 1.676-5.203 6.07-5.203 6.07s-4.98-.836-7.363-4.18a7.947 7.947 0 0 1-.867-6.69c.472-1.864 1.629-3.497 3.25-4.606C219.535.21 222.785.21 225.816.21h14.102v5.863h-17.3a2.647 2.647 0 0 0-1.622.727c-.434.41-.703.969-.754 1.562zm0 0"/><path style="stroke:none;fill-rule:evenodd;fill:#077fc8;fill-opacity:1" d="M1.512 4.813H0V3.348h1.512zM0 6.252h1.512v1.47H0zm0 4.395V9.184h1.512v1.464zm0 3.137v-1.46h1.512v1.46zm0 2.934V15.25h1.512v1.523zm0 3.136v-1.464h1.512v1.476zm0 6.07v-1.468h1.512v1.469zm0 2.927v-1.47h1.512v1.47zm3.031 0v-1.47H4.77v1.47zm0-4.395H4.77v1.469H3.03zm0 2.926h-1.52v-1.457h1.52zm0-7.528v-1.464H4.77v1.476zm0-3.136V15.25H4.77v1.523zm0-2.934v-1.46H4.77v1.46zm0-3.137V9.184H4.77v1.464zm0 10.883h-1.52v-1.664h1.52zm0-3.14h-1.52v-1.618h1.52zm0-3.141h-1.52v-1.465h1.52zm0-2.926h-1.52v-1.676h1.52zm-1.52-3.14V7.723h1.52v1.46zm4.77-5.86H4.77V4.79H6.28zM4.77 1.864H3.03V3.32H4.77zm23.843 17.78a8.71 8.71 0 0 1-.867 2.098c-1.469 2.895-4.027 5.137-7.152 6.274a18.79 18.79 0 0 1-5.852.836h-8.46v-1.47H4.77v-1.456H6.28v-1.469H4.77v-1.465H3.03v1.465h-1.52v-1.465H0v-1.46h1.512v1.46h1.52v-1.46H4.77v1.46h7.37c2.602 0 4.981-.21 6.934-1.46a7.753 7.753 0 0 0 2.668-2.692 7.346 7.346 0 0 0 1.012-3.59 10.385 10.385 0 0 0-2.813-6.922 6.343 6.343 0 0 0-3.25-1.887 11.086 11.086 0 0 0-2.59-.187H4.77v1.465H3.03V6.254H4.77V4.789H3.03v1.465h-1.52V4.789h1.52V3.332h-1.52V1.863H0V.414h1.512v1.469h1.52V.414h10.183c3.476 0 6.941.422 9.762 2.32 3.253 2.09 5.199 5.86 5.855 9.63.57 2.41.496 4.929-.219 7.3zm0 0"/></svg>